PathFileType	4	(X/Y/Z)	 control3min.trc
DataRate	CameraRate	NumFrames	NumMarkers	Units	OrigDataRate	OrigDataStartFrame	OrigNumFrames
200	200	8	35	m	200	876	1000
Frame#	Time	C7			LSH			RSH			MAN			RASI			LASI			HIPR			HIPL			RPSI			LPSI			COX			RTHI1			RTHI2			RTHI3			RTHI4			RSHA1			RSHA2			RSHA3			RSHA4			RHEEL			RMET5			RMET1			RTOE			LTHI1			LTHI2			LTHI3			LTHI4			LSHA1			LSHA2			LSHA3			LSHA4			LHEEL			LMET5			LMET1			LTOE			
		X1	Y1	Z1	X2	Y2	Z2	X3	Y3	Z3	X4	Y4	Z4	X5	Y5	Z5	X6	Y6	Z6	X7	Y7	Z7	X8	Y8	Z8	X9	Y9	Z9	X10	Y10	Z10	X11	Y11	Z11	X12	Y12	Z12	X13	Y13	Z13	X14	Y14	Z14	X15	Y15	Z15	X16	Y16	Z16	X17	Y17	Z17	X18	Y18	Z18	X19	Y19	Z19	X20	Y20	Z20	X21	Y21	Z21	X22	Y22	Z22	X23	Y23	Z23	X24	Y24	Z24	X25	Y25	Z25	X26	Y26	Z26	X27	Y27	Z27	X28	Y28	Z28	X29	Y29	Z29	X30	Y30	Z30	X31	Y31	Z31	X32	Y32	Z32	X33	Y33	Z33	X34	Y34	Z34	X35	Y35	Z35	
876	4.3800	-0.299451	1.476502	-0.548338	-0.228513	1.484205	-0.719872	-0.225988	1.465305	-0.381113	-0.172925	1.441062	-0.553900	-0.118855	1.030615	-0.449634	-0.132243	1.028605	-0.664616	-0.182723	1.076373	-0.410130	-0.185221	1.087566	-0.691884	-0.285376	1.068095	-0.493016	-0.289991	1.068693	-0.598583	-0.291239	1.075610	-0.548392	-0.231923	0.832284	-0.381578	-0.214464	0.775404	-0.377416	-0.152004	0.790927	-0.367165	-0.162044	0.851800	-0.368887	-0.245801	0.422059	-0.358722	-0.256435	0.380557	-0.363090	-0.196286	0.372159	-0.364286	-0.189955	0.412394	-0.363628	-0.324091	0.164498	-0.406774	-0.206622	0.062775	-0.357710	-0.172040	0.061289	-0.426506	-0.152388	0.049792	-0.424750	-0.240692	0.809538	-0.725939	-0.214007	0.754305	-0.731898	-0.153567	0.778030	-0.739465	-0.173361	0.834346	-0.735035	-0.295683	0.396684	-0.724861	-0.309184	0.358798	-0.721117	-0.249794	0.343263	-0.734483	-0.243765	0.386713	-0.736874	-0.366550	0.156988	-0.673674	-0.255261	0.076839	-0.761073	-0.209998	0.067624	-0.703889	-0.191273	0.057181	-0.713506	
877	4.3850	-0.299374	1.477067	-0.548385	-0.228270	1.484764	-0.719913	-0.225969	1.466013	-0.381103	-0.172752	1.441589	-0.553853	-0.119134	1.031147	-0.449486	-0.132280	1.029090	-0.664516	-0.183155	1.076838	-0.410108	-0.185353	1.087940	-0.691918	-0.285622	1.068505	-0.493106	-0.290068	1.069127	-0.598727	-0.291404	1.076051	-0.548465	-0.231997	0.832681	-0.382066	-0.214578	0.775821	-0.377871	-0.152099	0.791328	-0.367409	-0.162172	0.852218	-0.369016	-0.244822	0.422634	-0.358334	-0.255576	0.381162	-0.362709	-0.195428	0.372621	-0.364491	-0.189116	0.412905	-0.363712	-0.324039	0.164276	-0.406754	-0.204869	0.064882	-0.356574	-0.169928	0.063372	-0.425174	-0.150024	0.052030	-0.423302	-0.240595	0.809336	-0.725747	-0.213758	0.754171	-0.731603	-0.153395	0.778053	-0.739273	-0.173349	0.834323	-0.734975	-0.294759	0.397445	-0.724840	-0.308418	0.359636	-0.721143	-0.249090	0.343872	-0.734497	-0.242879	0.387291	-0.736867	-0.366834	0.157327	-0.673807	-0.254618	0.078892	-0.761473	-0.209355	0.069522	-0.704303	-0.190507	0.059206	-0.713974	
878	4.3900	-0.299257	1.477400	-0.548431	-0.227993	1.485043	-0.719967	-0.225936	1.466460	-0.381097	-0.172497	1.441830	-0.553809	-0.119437	1.031429	-0.449329	-0.132354	1.029322	-0.664418	-0.183597	1.077026	-0.410074	-0.185492	1.088080	-0.691929	-0.285906	1.068598	-0.493168	-0.290233	1.069252	-0.598764	-0.291609	1.076177	-0.548512	-0.232093	0.832788	-0.382512	-0.214678	0.775957	-0.378261	-0.152172	0.791495	-0.367703	-0.162315	0.852384	-0.369220	-0.243823	0.423026	-0.358059	-0.254685	0.381580	-0.362445	-0.194557	0.372894	-0.364724	-0.188238	0.413196	-0.363914	-0.324047	0.163926	-0.406730	-0.203257	0.066786	-0.355548	-0.168032	0.065252	-0.423976	-0.147888	0.054064	-0.421990	-0.240417	0.808933	-0.725632	-0.213400	0.753849	-0.731363	-0.153110	0.777913	-0.739046	-0.173256	0.834128	-0.734876	-0.293810	0.398036	-0.724855	-0.307643	0.360292	-0.721182	-0.248382	0.344273	-0.734532	-0.241972	0.387656	-0.736869	-0.367169	0.157516	-0.674043	-0.253946	0.080603	-0.761636	-0.208804	0.071145	-0.704378	-0.189821	0.060958	-0.714043	
879	4.3950	-0.299100	1.477505	-0.548471	-0.227687	1.485044	-0.720032	-0.225874	1.466644	-0.381098	-0.172201	1.441794	-0.553766	-0.119762	1.031462	-0.449174	-0.132466	1.029303	-0.664328	-0.184042	1.076950	-0.410028	-0.185633	1.087987	-0.691918	-0.286221	1.068383	-0.493209	-0.290481	1.069069	-0.598699	-0.291852	1.075993	-0.548540	-0.232206	0.832602	-0.382896	-0.214750	0.775817	-0.378578	-0.152213	0.791424	-0.368039	-0.162468	0.852308	-0.369486	-0.242821	0.423227	-0.357881	-0.253783	0.381783	-0.362254	-0.193695	0.372967	-0.364967	-0.187303	0.413254	-0.364233	-0.324106	0.163453	-0.406674	-0.201779	0.068474	-0.354658	-0.166372	0.066893	-0.422956	-0.145996	0.055857	-0.420888	-0.240148	0.808346	-0.725586	-0.212920	0.753357	-0.731180	-0.152699	0.777632	-0.738788	-0.173064	0.833774	-0.734740	-0.292842	0.398467	-0.724931	-0.306860	0.360761	-0.721241	-0.247671	0.344462	-0.734578	-0.241045	0.387804	-0.736879	-0.367531	0.157555	-0.674383	-0.253236	0.081958	-0.761580	-0.208326	0.072481	-0.704139	-0.189193	0.062413	-0.713745	
880	4.4000	-0.298916	1.477410	-0.548511	-0.227358	1.484770	-0.720107	-0.225781	1.466559	-0.381106	-0.171867	1.441495	-0.553720	-0.120104	1.031248	-0.449021	-0.132609	1.029034	-0.664250	-0.184488	1.076609	-0.409968	-0.185776	1.087666	-0.691887	-0.286565	1.067879	-0.493228	-0.290772	1.068575	-0.598612	-0.292126	1.075506	-0.548556	-0.232321	0.832126	-0.383202	-0.214781	0.775403	-0.378815	-0.152214	0.791128	-0.368405	-0.162624	0.851996	-0.369795	-0.241828	0.423214	-0.357827	-0.252892	0.381754	-0.362150	-0.192859	0.372829	-0.365212	-0.186309	0.413059	-0.364705	-0.324202	0.162875	-0.406569	-0.200432	0.069923	-0.353919	-0.164938	0.068275	-0.422172	-0.144365	0.057375	-0.420044	-0.239775	0.807583	-0.725602	-0.212309	0.752705	-0.731048	-0.152156	0.777213	-0.738496	-0.172762	0.833272	-0.734565	-0.291855	0.398690	-0.725021	-0.306068	0.361028	-0.721315	-0.246953	0.344424	-0.734622	-0.240099	0.387729	-0.736884	-0.367902	0.157428	-0.674808	-0.252482	0.082941	-0.761308	-0.207901	0.073513	-0.703621	-0.188608	0.063566	-0.713121	
881	4.4050	-0.298690	1.477074	-0.548542	-0.227008	1.484215	-0.720187	-0.225649	1.466206	-0.381120	-0.171506	1.440933	-0.553673	-0.120460	1.030787	-0.448880	-0.132786	1.028517	-0.664183	-0.184928	1.076015	-0.409900	-0.185923	1.087113	-0.691834	-0.286938	1.067099	-0.493229	-0.291098	1.067786	-0.598513	-0.292427	1.074735	-0.548562	-0.232424	0.831357	-0.383419	-0.214765	0.774723	-0.378965	-0.152168	0.790613	-0.368787	-0.162771	0.851449	-0.370133	-0.240844	0.422973	-0.357906	-0.252014	0.381494	-0.362121	-0.192051	0.372477	-0.365461	-0.185260	0.412601	-0.365305	-0.324316	0.162170	-0.406383	-0.199208	0.071102	-0.353351	-0.163733	0.069374	-0.421645	-0.142997	0.058583	-0.419485	-0.239283	0.806657	-0.725684	-0.211555	0.751893	-0.730965	-0.151470	0.776663	-0.738161	-0.172339	0.832634	-0.734349	-0.290838	0.398656	-0.725088	-0.305267	0.361071	-0.721415	-0.246221	0.344158	-0.734656	-0.239126	0.387430	-0.736878	-0.368266	0.157117	-0.675307	-0.251691	0.083555	-0.760849	-0.207506	0.074252	-0.702857	-0.188048	0.064423	-0.712204	
882	4.4100	-0.298423	1.476487	-0.548568	-0.226641	1.483383	-0.720272	-0.225480	1.465585	-0.381141	-0.171155	1.440096	-0.553628	-0.120829	1.030081	-0.448754	-0.132998	1.027763	-0.664127	-0.185360	1.075167	-0.409827	-0.186082	1.086328	-0.691767	-0.287343	1.066041	-0.493213	-0.291455	1.066709	-0.598409	-0.292757	1.073691	-0.548557	-0.232504	0.830319	-0.383554	-0.214688	0.773778	-0.379033	-0.152059	0.789872	-0.369177	-0.162892	0.850670	-0.370481	-0.239871	0.422487	-0.358121	-0.251173	0.380977	-0.362107	-0.191281	0.371896	-0.365672	-0.184176	0.411871	-0.366001	-0.324440	0.161334	-0.406130	-0.198098	0.071986	-0.352962	-0.162748	0.070164	-0.421383	-0.141886	0.059461	-0.419220	-0.238666	0.805560	-0.725826	-0.210654	0.750925	-0.730931	-0.150638	0.775965	-0.737778	-0.171783	0.831841	-0.734086	-0.289798	0.398393	-0.725190	-0.304444	0.360886	-0.721558	-0.245461	0.343661	-0.734671	-0.238122	0.386902	-0.736859	-0.368612	0.156604	-0.675866	-0.250856	0.083809	-0.760223	-0.207126	0.074712	-0.701885	-0.187500	0.064990	-0.711036	
883	4.4150	-0.298118	1.475636	-0.548587	-0.226260	1.482281	-0.720360	-0.225274	1.464691	-0.381168	-0.170766	1.439027	-0.553580	-0.121212	1.029132	-0.448645	-0.133245	1.026773	-0.664083	-0.185797	1.074069	-0.409751	-0.186258	1.085308	-0.691687	-0.287778	1.064722	-0.493188	-0.291827	1.065348	-0.598335	-0.293115	1.072386	-0.548545	-0.232540	0.829011	-0.383606	-0.214542	0.772587	-0.379026	-0.151880	0.788904	-0.369559	-0.162974	0.849658	-0.370819	-0.238940	0.421772	-0.358436	-0.250375	0.380217	-0.362155	-0.190551	0.371078	-0.365873	-0.183106	0.410897	-0.366692	-0.324561	0.160364	-0.405809	-0.197113	0.072545	-0.352758	-0.161970	0.070626	-0.421374	-0.141020	0.060002	-0.419227	-0.237914	0.804296	-0.726022	-0.209602	0.749796	-0.730935	-0.149659	0.775118	-0.737339	-0.171087	0.830900	-0.733783	-0.288738	0.397905	-0.725354	-0.303592	0.360450	-0.721746	-0.244655	0.342928	-0.734662	-0.237076	0.386133	-0.736820	-0.368933	0.155877	-0.676468	-0.249976	0.083728	-0.759453	-0.206746	0.074915	-0.700732	-0.186944	0.065290	-0.709658	
